<?xml version="1.0" standalone="no"?><!DOCTYPE svg PUBLIC "-//W3C//DTD SVG 1.1//EN" "http://www.w3.org/Graphics/SVG/1.1/DTD/svg11.dtd"><svg t="1521526897185" class="icon" style="" viewBox="0 0 1024 1024" version="1.1" xmlns="http://www.w3.org/2000/svg" p-id="191159" xmlns:xlink="http://www.w3.org/1999/xlink" width="128" height="128"><defs><style type="text/css"></style></defs><path d="M880 816H304c-16 0-32 12.8-32 32s12.8 32 32 32h576c16 0 32-12.8 32-32s-12.8-32-32-32z m0-128H304c-16 0-32 12.8-32 32s12.8 32 32 32h576c16 0 32-12.8 32-32s-12.8-32-32-32z m0-544H144c-16 0-32 12.8-32 32v160c0 19.2 12.8 32 32 32h736c16 0 32-12.8 32-32V176c0-19.2-12.8-32-32-32z m-32 160H176v-96h672v96z m32 256H304c-16 0-32 12.8-32 32s12.8 32 32 32h576c16 0 32-12.8 32-32s-12.8-32-32-32z m0-128H304c-16 0-32 12.8-32 32s12.8 32 32 32h576c16 0 32-12.8 32-32s-12.8-32-32-32z" fill="#ffffff" p-id="191160"></path></svg>