<?xml version="1.0" standalone="no"?><!DOCTYPE svg PUBLIC "-//W3C//DTD SVG 1.1//EN" "http://www.w3.org/Graphics/SVG/1.1/DTD/svg11.dtd"><svg t="1516763109930" class="icon" style="" viewBox="0 0 1024 1024" version="1.1" xmlns="http://www.w3.org/2000/svg" p-id="1922" xmlns:xlink="http://www.w3.org/1999/xlink" width="200" height="200"><defs><style type="text/css"></style></defs><path d="M853.333333 853.333333V256a85.333333 85.333333 0 0 0-85.333333-85.333333H170.666667a170.666667 170.666667 0 0 1 170.666666-170.666667h512a170.666667 170.666667 0 0 1 170.666667 170.666667v512a170.666667 170.666667 0 0 1-170.666667 170.666666z" p-id="1923" fill="#458DE9"></path><path d="M312.917333 568.917333h-71.168a71.082667 71.082667 0 0 0 0 142.165334h71.168v71.168a71.082667 71.082667 0 1 0 142.165334 0v-71.168h71.168a71.082667 71.082667 0 0 0 0-142.165334h-71.168v-71.168a71.082667 71.082667 0 0 0-142.165334 0v71.168zM59.136 256.768V256h649.728c32.341333 0 59.136 26.709333 59.136 58.965333v650.069334a59.477333 59.477333 0 0 1-59.136 58.88H59.136A59.477333 59.477333 0 0 1 0 965.12V315.733333c0-32.256 26.794667-59.050667 59.136-59.050666z" p-id="1924" fill="#458DE9"></path></svg>