<?xml version="1.0" standalone="no"?><!DOCTYPE svg PUBLIC "-//W3C//DTD SVG 1.1//EN" "http://www.w3.org/Graphics/SVG/1.1/DTD/svg11.dtd"><svg t="1518491415383" class="icon" style="" viewBox="0 0 1024 1024" version="1.1" xmlns="http://www.w3.org/2000/svg" p-id="12208" xmlns:xlink="http://www.w3.org/1999/xlink" width="200" height="200"><defs><style type="text/css"></style></defs><path d="M938.987 590.929c0 0-57.53 57.908-63.42 63.813-5.903 5.905-25.688 5.25-25.688 5.25s-52.495-5.905-60.090-13.451c-7.529-7.579-12.765-62.42-12.765-62.42s-1.423-15.322 6.121-22.901c7.562-7.546 63.666-63.633 63.666-63.633s7.235-8.104-3.199-8.136c-33.681-0.131-102.119 0.623-135.255 33.794l-6.824 6.792c-39.152 39.387-41.495 98.575-10.081 141.128l-193.859 175.381c-15.404 15.42-35.696 57.35 0 93.047 35.696 35.696 77.608 15.404 92.995 0 0 0 126.856-138.783 137.702-150.922 10.857-12.139 5.166-24.869 5.166-24.869s-22.31-31.169-34.351-49.821c-6.545-10.187-3.444-11.467 5.838-5.528 25.624 16.388 55.532 35.171 60.717 37.665l0.288-0.32c42.396 31.759 101.549 29.488 140.905-9.933l6.806-6.808c32.123-32.121 33.090-99.97 33.238-134.238 0.080-10.927-7.909-3.889-7.909-3.889zM549.2 919.741c-18.010 0-32.596-14.601-32.596-32.613s14.585-32.613 32.596-32.613c18.012 0 32.596 14.601 32.596 32.613s-14.584 32.613-32.596 32.613zM442.931 557.217c54.954 0 106.842-5.578 153.528-15.289 29.58-81.564 107.583-140.095 199.236-140.095 3.295 0 6.48 0.328 9.742 0.509 0.199-2.28 0.774-4.512 0.774-6.775v-123.657c0 89.34-162.604 161.683-363.279 161.683-200.675 0-363.28-72.344-363.28-161.683v123.657c0.001 89.323 162.605 161.651 363.28 161.651zM442.931 389.234c200.674 0 363.279-72.327 363.279-161.651 0-89.372-162.604-161.716-363.279-161.716-200.675 0-363.28 72.344-363.28 161.716 0.001 89.323 162.605 161.651 363.28 161.651zM442.931 725.2c20.161 0 39.814-0.903 59.089-2.313l82.614-82.614c0.211-0.213 0.344-0.378 0.541-0.541-1.036-8.465-1.575-17.093-1.575-25.837 0-8.53 0.67-16.897 1.638-25.198-43.7 8.301-91.781 12.877-142.307 12.877-200.675 0-363.28-72.345-363.28-161.683v123.657c0.001 89.323 162.605 161.652 363.28 161.652zM79.685 607.891v123.608c0 85.024 147.28 154.465 334.407 161.027-4.626-40.552 2.428-84.123 22.851-104.595l18.683-18.668c-4.263 0.065-8.399 0.296-12.695 0.296-200.646-0.001-363.246-72.346-363.246-161.668z" p-id="12209"></path></svg>