<?xml version="1.0" standalone="no"?><!DOCTYPE svg PUBLIC "-//W3C//DTD SVG 1.1//EN" "http://www.w3.org/Graphics/SVG/1.1/DTD/svg11.dtd"><svg t="1521522836324" class="icon" style="" viewBox="0 0 1024 1024" version="1.1" xmlns="http://www.w3.org/2000/svg" p-id="12674" xmlns:xlink="http://www.w3.org/1999/xlink" width="128" height="128"><defs><style type="text/css"></style></defs><path d="M597.333333 768v256H170.666667a56.888889 56.888889 0 0 1-56.888889-56.888889V56.888889a56.888889 56.888889 0 0 1 56.888889-56.888889h682.666666a56.888889 56.888889 0 0 1 56.888889 56.888889v654.222222h-256a56.888889 56.888889 0 0 0-56.888889 56.888889zM284.444444 483.555556h227.555556a28.444444 28.444444 0 0 0 0-56.888889H284.444444a28.444444 28.444444 0 0 0 0 56.888889z m0-113.777778h227.555556a28.444444 28.444444 0 0 0 0-56.888889H284.444444a28.444444 28.444444 0 0 0 0 56.888889z m398.222223-142.222222a28.444444 28.444444 0 0 0-28.444445-28.444445H284.444444a28.444444 28.444444 0 0 0 0 56.888889h369.777778a28.444444 28.444444 0 0 0 28.444445-28.444444z m0 540.444444h199.111111a28.444444 28.444444 0 0 1 28.444444 28.444444l-227.555555 227.555556a28.444444 28.444444 0 0 1-28.444445-28.444444v-199.111112a28.444444 28.444444 0 0 1 28.444445-28.444444z" fill="#ffffff" p-id="12675"></path></svg>