<?xml version="1.0" standalone="no"?><!DOCTYPE svg PUBLIC "-//W3C//DTD SVG 1.1//EN" "http://www.w3.org/Graphics/SVG/1.1/DTD/svg11.dtd"><svg t="1521525096066" class="icon" style="" viewBox="0 0 1024 1024" version="1.1" xmlns="http://www.w3.org/2000/svg" p-id="78710" xmlns:xlink="http://www.w3.org/1999/xlink" width="128" height="128"><defs><style type="text/css"></style></defs><path d="M320 320C284.608 320 256 348.608 256 384s28.608 64 64 64 64-28.608 64-64S355.392 320 320 320zM320 640c-35.392 0-64 28.608-64 64s28.608 64 64 64 64-28.608 64-64S355.392 640 320 640zM640 320C604.608 320 576 348.608 576 384s28.608 64 64 64 64-28.608 64-64S675.392 320 640 320zM480 64C214.848 64 0 278.848 0 544S214.848 1024 480 1024 960 809.152 960 544 745.152 64 480 64zM320 832c-70.656 0-128-57.344-128-128s57.344-128 128-128 128 57.344 128 128S390.656 832 320 832zM320 512C249.344 512 192 454.656 192 384s57.344-128 128-128 128 57.344 128 128S390.656 512 320 512zM640 832c-70.656 0-128-57.344-128-128s57.344-128 128-128 128 57.344 128 128S710.656 832 640 832zM640 512C569.344 512 512 454.656 512 384s57.344-128 128-128 128 57.344 128 128S710.656 512 640 512zM640 640c-35.392 0-64 28.608-64 64s28.608 64 64 64 64-28.608 64-64S675.392 640 640 640z" p-id="78711"></path></svg>