<?xml version="1.0" standalone="no"?><!DOCTYPE svg PUBLIC "-//W3C//DTD SVG 1.1//EN" "http://www.w3.org/Graphics/SVG/1.1/DTD/svg11.dtd"><svg t="1518499959534" class="icon" style="" viewBox="0 0 1024 1024" version="1.1" xmlns="http://www.w3.org/2000/svg" p-id="12332" xmlns:xlink="http://www.w3.org/1999/xlink" width="200" height="200"><defs><style type="text/css"></style></defs><path d="M928.11719111 669.14076445c-5.67978667-2.51221333-105.40373333-45.98442667-217.36106666-69.5045689A200.24888889 200.24888889 0 0 0 803.27111111 430.99022222v-119.16629333C803.27111111 201.35936 713.59601778 111.50222222 603.34990222 111.50222222a199.30225778 199.30225778 0 0 0-149.71335111 67.93898667 199.59352889 199.59352889 0 0 0-50.28067556 132.38272v119.16629333c0 67.28362667 33.38695111 126.81216 84.32298667 163.14823111-123.06204445 21.26279111-239.78894222 72.19882667-245.25027555 74.63822222C209.26008889 682.35719111 184.32 719.67630222 184.32 755.61187555v143.81511112h0.61895111a74.56540445 74.56540445 0 0 0 73.91004444 64.80782222h651.93756445c32.62236445 0 61.78588445-21.33560889 72.59932445-53.12056889l1.9296711-5.67978667v-149.82257778c0-36.19043555-25.04931555-73.58236445-57.19836444-86.4711111" p-id="12333"></path><path d="M296.31374222 586.96590222c39.79491555-12.41543111 58.65472-19.36952889 58.65472-19.36952889s25.77749333-11.35957333 18.96903111-34.11512888c-15.94709333-30.36501333-27.30666667-53.88515555-27.30666666-142.61361778V275.56067555s6.84487111-56.10609778 28.43534222-61.42179555c1.74762667-1.85685333 2.03889778-4.58752 1.27431111-7.64586667a36.33607111 36.33607111 0 0 0-33.45976889-22.20942222 151.13329778 151.13329778 0 0 0-150.91484444 151.06048v95.86460444c0 37.24629333 14.05383111 70.96092445 36.48170666 97.32096-71.36142222 21.95456-133.72984889 56.54300445-145.16224 63.09660445C57.28938667 603.93244445 38.68444445 633.38723555 38.68444445 662.69639111v104.56632889a36.40888889 36.40888889 0 0 0 36.40888888 36.40888889 36.0448 36.0448 0 0 0 35.60789334-32.40391111c0.14563555-1.34712889 0.80099555-2.58503111 0.80099555-4.00497778v-16.67527111c2.91271111-34.47921778 15.83786667-97.06609778 69.39534223-126.37525334 8.192-3.64088889 16.93013333-7.20896 25.8503111-10.74062222a3389.30346667 3389.30346667 0 0 0 89.56586667-26.50567111" p-id="12334"></path></svg>