<?xml version="1.0" standalone="no"?><!DOCTYPE svg PUBLIC "-//W3C//DTD SVG 1.1//EN" "http://www.w3.org/Graphics/SVG/1.1/DTD/svg11.dtd"><svg t="1518493065883" class="icon" style="" viewBox="0 0 1024 1024" version="1.1" xmlns="http://www.w3.org/2000/svg" p-id="23905" xmlns:xlink="http://www.w3.org/1999/xlink" width="200" height="200"><defs><style type="text/css"></style></defs><path d="M896.82580645 830.88076612H602.94881721c-10.46021505 40.51956989-47.23612903 70.46881721-90.94881721 70.46881721-43.93290323 0-80.81892473-30.16946237-91.05892473-70.79913979-1.32129032 0.22021505-2.75268818 0.33032258-4.18408603 0.33032258h-289.58279569l70.46881721 140.93763442h628.71397848l70.46881721-140.93763442zM889.66881721 783.86485215l-98.6563441-140.93763442H235.63010753c-0.88086021 0-1.76172043 0-2.53247312-0.11010751L134.33118279 783.86485215h282.42580645c1.43139785 0 2.8627957 0.11010753 4.18408603 0.33032258 10.35010753-40.73978495 47.1260215-70.79913979 91.05892473-70.79913978 43.8227957 0 80.59870968 29.94924731 90.94881721 70.4688172H889.66881721zM758.20043011 595.91130377L586.76301076 351.03216398c-2.75268818-3.96387097-4.29419355-8.69849463-4.29419355-13.43311827V173.09840054c0-6.27612903 2.42236559-12.22193548 6.82666666-16.62623655l53.84258065-53.84258066-47.01591399-47.01591398h-168.46451612l-47.01591398 47.01591398 53.84258065 53.84258066c4.40430108 4.40430108 6.82666666 10.35010753 6.82666666 16.62623655v164.39053764c0 4.84473118-1.43139785 9.46924731-4.29419355 13.43311826L265.79956989 595.91130377h492.40086022zM394.51526882 182.89797042l-63.64215054-63.64215053c-9.13892473-9.13892473-9.13892473-24.00344086 0-33.25247313l70.4688172-70.46881719c4.40430108-4.40430108 10.35010753-6.82666666 16.62623657-6.82666667h187.95354838c6.27612903 0 12.22193548 2.42236559 16.62623656 6.82666667l70.4688172 70.46881719c9.13892473 9.13892473 9.13892473 24.00344086 0 33.25247313l-63.64215053 63.64215053V330.2218414l324.59698924 463.77290321c4.95483871 7.04688172 5.61548387 16.29591398 1.76172044 24.00344087l-93.92172044 187.95354838c-3.96387097 7.92774193-12.11182795 12.99268818-21.03053763 12.99268818H183.10881721c-8.91870968 0-17.06666666-5.06494624-21.03053764-12.99268818L68.15655914 817.99818548c-3.85376344-7.70752689-3.19311828-16.95655914 1.76172043-24.00344087L394.51526882 330.2218414V182.89797042zM512 854.33366936c25.98537634 0 47.01591398-21.03053763 47.01591398-47.01591399s-21.03053763-47.01591398-47.01591398-47.01591398-47.01591398 21.03053763-47.01591398 47.01591398S486.01462366 854.33366936 512 854.33366936z" fill="" p-id="23906"></path></svg>