<?xml version="1.0" standalone="no"?><!DOCTYPE svg PUBLIC "-//W3C//DTD SVG 1.1//EN" "http://www.w3.org/Graphics/SVG/1.1/DTD/svg11.dtd"><svg t="1521511564496" class="icon" style="" viewBox="0 0 1024 1024" version="1.1" xmlns="http://www.w3.org/2000/svg" p-id="12615" xmlns:xlink="http://www.w3.org/1999/xlink" width="128" height="128"><defs><style type="text/css"></style></defs><path d="M884.8 172.576H478.08a135.552 135.552 0 0 0-135.552-135.552H139.2A135.584 135.584 0 0 0 3.616 172.576v677.824a135.552 135.552 0 0 0 135.584 135.584h745.6a135.552 135.552 0 0 0 135.552-135.584V308.128a135.52 135.52 0 0 0-135.552-135.552zM139.2 104.8h203.328c37.44 0 67.776 30.336 67.776 67.776H71.392c0-37.44 30.368-67.776 67.808-67.776z m813.44 745.6c0 37.408-30.4 67.744-67.808 67.744H139.2a67.744 67.744 0 0 1-67.776-67.744V240.384H884.8a67.84 67.84 0 0 1 67.808 67.776v542.24h0.032z" fill="#ffffff" p-id="12616"></path><path d="M723.648 506.912h-2.016c-34.016 0-61.728-29.312-61.728-65.344 0-11.84 5.376-24.896 5.376-24.96a30.464 30.464 0 0 0-9.44-35.712l-0.64-0.416-59.232-35.008-0.64-0.224a30.176 30.176 0 0 0-33.664 7.104c-7.264 7.936-30.112 28.448-48.608 28.448s-41.568-20.928-48.8-28.992a30.176 30.176 0 0 0-22.24-9.76 27.296 27.296 0 0 0-11.264 2.4l-0.672 0.256-61.408 35.712-0.64 0.416a30.688 30.688 0 0 0-9.44 35.808c0 0.16 5.344 13.12 5.344 24.96 0 36.064-27.648 65.344-61.664 65.344h-1.984c-9.984-0.224-18.016 8.96-20.608 23.296-0.224 1.152-4.96 28-4.96 49.28 0 21.216 4.736 48.16 4.96 49.312 2.592 14.176 10.432 23.36 20.192 23.36h2.368c34.016 0 61.696 29.248 61.696 65.344 0 11.84-5.344 24.8-5.344 24.928a30.656 30.656 0 0 0 9.408 35.712l0.544 0.448 58.24 34.464 0.608 0.288a27.104 27.104 0 0 0 11.456 2.432 29.984 29.984 0 0 0 22.24-9.92c6.848-7.776 30.592-30.208 49.6-30.208 19.104 0 42.592 22.304 49.92 30.848a29.536 29.536 0 0 0 33.664 7.712l0.64-0.256 60.32-35.328 0.608-0.448a30.656 30.656 0 0 0 9.472-35.68c0-0.064-5.376-13.088-5.376-24.928 0-36.064 27.68-65.344 61.696-65.344h2.016c9.92 0.192 18.016-8.992 20.608-23.392 0.32-1.184 5.088-28.192 5.088-49.344s-4.768-48.096-4.992-49.28c-2.592-14.368-10.688-23.552-20.704-23.328z m-45.312 107.68c-38.304 2.016-68.928 35.936-68.928 77.28 0 13.792 4.96 26.976 6.048 29.728l-45.696 26.848-0.064 0.032c-0.736 0-1.344-0.256-1.472-0.544a129.408 129.408 0 0 0-17.024-15.936c-14.24-11.296-27.68-16.96-40.224-16.96-12.416 0-25.856 5.568-40 16.608-9.472 7.392-16.064 14.88-16.864 15.744a3.776 3.776 0 0 1-1.44 0.448h-0.128l-44.096-26.208c3.808-9.504 5.888-19.552 6.176-29.792 0-41.28-30.592-75.2-68.928-77.248a235.232 235.232 0 0 1-3.616-35.104c0-13.696 3.008-32 3.52-35.168 38.368-2.112 69.024-36 69.024-77.344 0-13.76-5.024-26.88-6.112-29.664l46.592-27.2h0.128c0.8 0 1.472 0.256 1.696 0.448 0.8 0.832 7.328 8 16.8 15.2 13.92 10.56 27.104 15.936 39.232 15.936 12 0 25.088-5.28 38.976-15.648 9.504-7.04 15.968-14.08 16.768-14.816a3.136 3.136 0 0 1 1.664-0.48h0.192l44.96 26.592a87.936 87.936 0 0 0-6.048 29.728c0 41.28 30.56 75.168 68.928 77.344 0.608 3.264 3.616 21.408 3.616 35.104a240.064 240.064 0 0 1-3.68 35.072z" fill="#ffffff" p-id="12617"></path><path d="M444.992 579.296c0 37.664 30.016 68.192 66.976 68.192 37.024 0 66.944-30.528 66.944-68.192s-29.92-68.192-66.912-68.192c-36.992 0-67.008 30.528-67.008 68.192z" fill="#ffffff" p-id="12618"></path></svg>