<?xml version="1.0" standalone="no"?><!DOCTYPE svg PUBLIC "-//W3C//DTD SVG 1.1//EN" "http://www.w3.org/Graphics/SVG/1.1/DTD/svg11.dtd"><svg t="1516503646867" class="icon" style="" viewBox="0 0 1025 1024" version="1.1" xmlns="http://www.w3.org/2000/svg" p-id="2452" xmlns:xlink="http://www.w3.org/1999/xlink" width="200.1953125" height="200"><defs><style type="text/css"></style></defs><path d="M1017.856 460.8l-185.408-233.536c-20.48-25.6-58.368-25.6-78.848 0L569.216 460.8C554.88 478.208 568.256 504.832 590.784 504.832l72.704 0c-2.048 136.192-2.048 309.312-240.704 447.552-6.144 4.096-3.072 13.312 4.096 12.288 456.768-70.656 493.632-376.896 494.656-458.816l75.776 0C1019.904 504.832 1032.192 478.208 1017.856 460.8L1017.856 460.8zM434.048 519.168 361.344 519.168c2.048-136.192 2.048-309.312 240.704-447.552 6.144-4.096 3.072-13.312-4.096-12.288C141.12 129.984 104.256 437.248 103.232 518.144L27.456 518.144c-22.528 0-35.84 26.624-21.504 44.032l185.344 233.536c20.48 25.6 58.368 25.6 78.848 0l185.408-233.536C468.864 545.792 456.576 519.168 434.048 519.168L434.048 519.168zM434.048 519.168" p-id="2453" fill="#458DE9"></path></svg>