<?xml version="1.0" standalone="no"?><!DOCTYPE svg PUBLIC "-//W3C//DTD SVG 1.1//EN" "http://www.w3.org/Graphics/SVG/1.1/DTD/svg11.dtd"><svg t="1518493523900" class="icon" style="" viewBox="0 0 1024 1024" version="1.1" xmlns="http://www.w3.org/2000/svg" p-id="12272" xmlns:xlink="http://www.w3.org/1999/xlink" width="200" height="200"><defs><style type="text/css"></style></defs><path d="M794.33454933 207.43236267c-26.181632-151.02225067-168.66235733-251.76746667-318.17181866-225.20900267-149.31285333 26.56392533-275.480576 142.86301867-249.10779734 293.69412267 5.69070933 32.63146667 21.43573333 83.48194133 40.03157334 120.10018133L-4.22161067 787.42050133c-10.05431467 14.41792-15.75048533 40.41386667-12.713984 57.868288l11.763712 66.97233067c-11.19573333-64.503808 3.03650133 23.33627733 11.75825067 22.953984l89.358336 1.327104c17.268736-3.03104 38.895616-17.645568 48.381952-32.44032l107.38619733-167.90869333 0.94481067-1.14141867 93.72740267 7.40010667 125.40859733-196.558848s27.91287467-57.10916267 131.27953067-112.06109867c94.60667733-43.80535467 173.91069867-34.65762133 173.91069866-34.65762133 23.00859733-57.59522133 29.016064-125.51236267 17.350656-191.741952zM69.189632 814.27387733l-23.46734933 14.77290667 5.46679466-26.54208 254.61828267-364.40200533 17.60733867 12.33169066-254.22506667 363.839488zM662.093824 284.64469333c-41.16753067 59.195392-83.099648 17.45988267-141.7216-24.09540266-58.62741333-41.549824-111.94094933-66.96686933-70.76795733-126.353408 41.16753067-59.18993067 121.98980267-73.79899733 180.617216-32.25463467 58.621952 41.74097067 73.039872 123.51351467 31.87234133 182.70344533z" fill="#ffffff" p-id="12273"></path><path d="M760.35413333 471.41137067c-158.17659733 0-286.343168 128.16657067-286.343168 286.33770666 0 158.17659733 128.16657067 286.343168 286.343168 286.343168 158.171136 0 286.33770667-128.16657067 286.33770667-286.33770666 0-158.17659733-128.16657067-286.343168-286.33770667-286.343168z m165.46747734 403.87652266c0 42.72401067-81.89815467 52.51618133-158.79918934 52.51618134-76.90103467 0-159.842304-9.797632-159.842304-52.51618134v-11.8784c0-31.46820267 56.68317867-63.35146667 104.83029334-80.64750933 3.538944-1.25064533 20.20693333-10.420224 10.829824-34.799616-23.96433067-24.38485333-41.88296533-63.98498133-41.88296534-102.95159467 0-59.59953067 39.387136-90.85474133 85.65009067-90.85474133 46.06088533 0 85.85762133 31.260672 85.85762133 90.85474133 0 38.764544-18.13162667 78.15168-41.88842666 102.744064h0.20753066c-9.16411733 27.71626667 5.41764267 34.37909333 7.70594134 35.00714667 50.64840533 16.66798933 107.53911467 48.349184 107.53911466 80.64750933l-0.20753066 11.8784z m0 0" fill="#ffffff" p-id="12274"></path></svg>