<?xml version="1.0" standalone="no"?><!DOCTYPE svg PUBLIC "-//W3C//DTD SVG 1.1//EN" "http://www.w3.org/Graphics/SVG/1.1/DTD/svg11.dtd"><svg t="1518491540756" class="icon" style="" viewBox="0 0 1024 1024" version="1.1" xmlns="http://www.w3.org/2000/svg" p-id="12572" xmlns:xlink="http://www.w3.org/1999/xlink" width="200" height="200"><defs><style type="text/css"></style></defs><path d="M837.027 61.873h-650.183l-100.029 100.029v800.225h600.169l50.013-50.307v-649.89l-49.234-50.013h-500.92l50.013-50.013 550.156-1.075 50.013 50.796v649.402h100.029v-699.417l-100.029-99.735zM235.981 720.898c33.114-35.265 77.071-72.727 109.991-83.471 12.503-4.053 26.471-35.019 20.22-54.605-0.39-1.025-0.878-1.953-1.366-2.979-0.979-2.052-1.856-4.054-3.417-5.763-12.112-13.089-19.246-26.229-23.739-37.316-0.195-0.391-0.292-0.733-0.485-1.124 0-0.048 0-0.097 0-0.146v-0.050c-0.391-0.978-0.781-1.903-1.076-2.782-0.486-1.271-0.683-2.246-1.073-3.418-0.88-2.589-1.759-5.128-2.444-7.766 0-0.048 0-0.098 0-0.146-0.292-1.223-0.587-2.396-0.782-3.616-0.977-5.031-1.268-8.301-1.268-8.301h0.389c-0.099-2.395-0.686-4.689-0.686-7.131 0-47.035 38.097-85.132 85.18-85.132 0 0 0 0 0.099 0v0c47.083 0 85.18 38.096 85.18 85.132 0 2.444-0.489 4.738-0.686 7.131h0.391c0 0-0.196 3.272-1.172 8.301-0.292 1.22-0.486 2.394-0.782 3.616 0 0.048-0.096 0.098-0.096 0.146-0.586 2.637-1.466 5.177-2.344 7.766-0.39 1.172-0.687 2.15-1.076 3.418-0.292 0.879-0.683 1.807-1.072 2.782v0.050c0 0.049-0.1 0.098-0.1 0.146-0.096 0.391-0.196 0.733-0.485 1.124-4.398 11.087-11.626 24.227-23.64 37.316-1.562 1.709-2.539 3.711-3.517 5.763-0.489 1.025-0.88 1.954-1.367 2.979-6.155 19.588 7.621 50.209 20.22 54.605 34.384 11.869 76.976 48.207 109.991 83.471v38.389h-358.986v-38.389z" p-id="12573"></path></svg>