<?xml version="1.0" standalone="no"?><!DOCTYPE svg PUBLIC "-//W3C//DTD SVG 1.1//EN" "http://www.w3.org/Graphics/SVG/1.1/DTD/svg11.dtd"><svg t="1518492404318" class="icon" style="" viewBox="0 0 1025 1024" version="1.1" xmlns="http://www.w3.org/2000/svg" p-id="1766" xmlns:xlink="http://www.w3.org/1999/xlink" width="200.1953125" height="200"><defs><style type="text/css"></style></defs><path d="M466.67057 625.503264l281.416594-284.267847-24.013779-24.19878-65.073829 65.68383-46.582557-47.007557 27.436283-27.748784c1.440002-1.416252 1.665002-3.135004 1.670002-4.028755 0.005-0.946251-0.22-2.777503-1.787502-4.355005l-45.287555-45.727556-19.297524 19.492524 38.891297 39.345048-62.797577 63.585078-38.935048-39.375048-19.321274 19.496274 45.482556 46.001306c1.093751 1.098751 2.528753 1.723752 4.013755 1.723752 1.011251 0 2.485003-0.28375 3.788755-1.631252l0.0975-0.0975 27.587534-27.871284 46.631307 46.982557-177.925217 179.648969-8.998761-5.337507c-16.32877-9.687512-35.025043-14.808768-54.077566-14.808768-28.521285 0-55.356318 11.223764-75.561342 31.605039-41.763801 42.172551-41.763801 110.786385 0.005 152.943937 20.200025 20.396275 47.035057 31.631289 75.566342 31.631289 28.530035 0 55.371318-11.233764 75.566342-31.626289 34.482542-34.823793 41.33255-88.773858 16.66002-131.18641L466.67057 625.503264zM410.556751 720.53963c-8.27126 8.34876-19.257524 12.952516-30.937538 12.952516-11.678764-0.005-22.670028-4.605006-30.951288-12.958766-17.153771-17.315021-17.148771-45.511306-0.005-62.846327 8.28126-8.35001 19.272524-12.948766 30.951288-12.948766 11.675014 0 22.666278 4.600006 30.933788 12.935016C427.705522 675.022074 427.710522 703.218358 410.556751 720.53963z" p-id="1767"></path><path d="M512.026875 0C229.23903 0 0 229.23903 0 512.026875c0 282.744095 229.23903 511.973125 512.026875 511.973125 282.779095 0 512.003125-229.22903 512.003125-511.973125C1024.03 229.23903 794.80597 0 512.026875 0zM772.735943 354.424183 499.86436 630.059519c24.79003 51.283813 14.882518 113.412638-25.655031 154.355188-25.273781 25.517531-58.871322 39.571298-94.608865 39.571298-35.737544 0-69.336335-14.053767-94.610115-39.571298-52.065064-52.553814-52.065064-138.085169 0-190.663983 25.283781-25.496281 58.877572-39.541298 94.600115-39.541298 20.317525 0 40.322549 4.653756 58.447571 13.535017l144.808927-146.220178-8.867511-8.936261-8.52001 8.608761c-6.108757 6.270008-14.262517 9.721262-22.978778 9.721262-8.672511 0-16.855021-3.427504-23.042528-9.652512l-64.165078-64.892579 57.05132-57.56882 38.901297 39.346298 25.141281-25.455031-38.911297-39.365048 56.98257-57.56882 64.336329 64.956329c6.206258 6.265008 9.595012 14.570018 9.541262 23.378779-0.05375 8.687511-3.457504 16.812521-9.590012 22.886278l-8.603761 8.706261 8.872511 8.955011 51.767563-52.251314c3.506254-3.583754 8.26126-5.591257 13.330016-5.591257 5.010006 0 9.863762 2.061253 13.350016 5.660007l35.230043 35.507543C779.893452 335.185409 779.937202 347.075424 772.735943 354.424183z" p-id="1768"></path><path d="M512.026875 999.03122" p-id="1769"></path></svg>