<?xml version="1.0" standalone="no"?><!DOCTYPE svg PUBLIC "-//W3C//DTD SVG 1.1//EN" "http://www.w3.org/Graphics/SVG/1.1/DTD/svg11.dtd"><svg t="1518494239088" class="icon" style="" viewBox="0 0 1024 1024" version="1.1" xmlns="http://www.w3.org/2000/svg" p-id="12302" xmlns:xlink="http://www.w3.org/1999/xlink" width="200" height="200"><defs><style type="text/css"></style></defs><path d="M721.46250183 566.50763719c-48.37878784-69.35472811-118.47167886-122.43493888-200.42873628-149.37905493 61.47943651-40.2485157 102.10169059-109.71734471 102.10169059-188.68565675 0-124.47245539-100.90479502-225.37608647-225.37608647-225.37608647s-225.37608647 100.90479502-225.37608647 225.37608647c0 78.97762589 40.63273301 148.45576875 102.12497635 188.70079147C117.29349859 468.82328235 3.71185891 616.64451015 3.35791331 791.06871637l-0.0081499 0 0 110.92704712 56.24243656 0.0663643 0.10012899-110.17840526 0.00116395 0c0-186.40945949 151.65525219-338.06471168 338.06471168-338.06471168 99.9046656 0 189.82317283 43.563264 251.76716174 112.6886252L341.41447509 566.50763719l0 450.7521718 676.12942336 0L1017.54389731 566.50763719 721.46250183 566.50763719zM397.75820573 397.47528135c-93.20531171 0-169.03235584-75.82704413-169.03235584-169.03235584s75.82704413-169.03235584 169.03235584-169.03235584c93.20531171 0 169.03235584 75.82704413 169.03235584 169.03235584S490.96351744 397.47528135 397.75820573 397.47528135zM961.19900274 960.9160795L397.75820573 960.9160795l0-338.06471168 563.44079814 0L961.19900274 960.9160795z" p-id="12303"></path><path d="M685.29251101 735.20933319L797.98113621 904.24168903 868.24634254 763.71244032 907.20249059 763.71244032 907.20249059 707.36754574 833.47117853 707.36754574 791.04775965 792.2143835 678.36029838 623.18202766 561.43480377 857.03185294 476.36907805 771.96496327 436.53155954 811.80248291 576.84192029 952.11284366Z" p-id="12304"></path></svg>