<?xml version="1.0" standalone="no"?><!DOCTYPE svg PUBLIC "-//W3C//DTD SVG 1.1//EN" "http://www.w3.org/Graphics/SVG/1.1/DTD/svg11.dtd"><svg t="1518489741128" class="icon" style="" viewBox="0 0 1024 1024" version="1.1" xmlns="http://www.w3.org/2000/svg" p-id="12209" xmlns:xlink="http://www.w3.org/1999/xlink" width="200" height="200"><defs><style type="text/css"></style></defs><path d="M735.42666862 570.14147967c-51.60404036-73.97837665-126.36979078-130.59726814-213.79065203-159.33765859 65.57806561-42.93175008 108.90846996-117.03183436 108.90846996-201.26470054 0-132.77061908-107.63178135-240.4011589-240.4011589-240.4011589s-240.4011589 107.63178135-240.4011589 240.4011589c0 84.24280095 43.34158188 158.35282 108.9333081 201.28084424C90.97973183 465.94483451-30.17401716 623.62081083-30.55155914 809.67329746l-0.00869322 0 0 118.3221836 59.99193233 0.07078858 0.10680425-117.52363227 0.00124155 0c0-198.83675679 161.76560234-360.60235913 360.60235913-360.60235913 106.56497664 0 202.47805102 46.4674816 268.55163919 120.20120021L330.04210676 570.14147967l0 480.80231659 721.20471825 0L1051.2468238 570.14147967 735.42666862 570.14147967zM390.14208611 389.84030011c-99.41899916 0-180.30117956-80.88218041-180.30117956-180.30117957s80.88218041-180.30117956 180.30117956-180.30117956c99.41899916 0 180.30117956 80.88218041 180.30117956 180.30117956S489.56108527 389.84030011 390.14208611 389.84030011zM991.14560292 990.84381813L390.14208611 990.84381813l0-360.60235912 601.00351802 0L991.14560292 990.84381813z" fill="#2c2c2c" p-id="12210"></path><path d="M696.84534508 750.0899554L817.04654529 930.39113497 891.99609871 780.49326967 933.5493233 780.49326967 933.5493233 720.39204879 854.90259043 720.39204879 809.65094363 810.8953424 689.45098494 630.59416284 564.73045735 880.03397647 473.99368325 789.29596082 431.50033018 831.7893151 581.16471498 981.4536999Z" fill="#2c2c2c" p-id="12211"></path></svg>