<?xml version="1.0" standalone="no"?><!DOCTYPE svg PUBLIC "-//W3C//DTD SVG 1.1//EN" "http://www.w3.org/Graphics/SVG/1.1/DTD/svg11.dtd"><svg t="1521523316193" class="icon" style="" viewBox="0 0 1024 1024" version="1.1" xmlns="http://www.w3.org/2000/svg" p-id="12924" xmlns:xlink="http://www.w3.org/1999/xlink" width="128" height="128"><defs><style type="text/css"></style></defs><path d="M512 419.84c-105.6 0-191.36-84.48-191.36-188.8S406.4 42.24 512 42.24c105.6 0 191.36 84.48 191.36 188.8S617.6 419.84 512 419.84zM512 80.64c-84.48 0-152.96 67.2-152.96 150.4 0 83.2 68.48 150.4 152.96 150.4s152.96-67.2 152.96-150.4C664.96 147.84 596.48 80.64 512 80.64z" p-id="12925"></path><path d="M190.08 965.12c-67.84 0-130.56-35.2-164.48-92.8-24.96-42.88-32-92.16-19.2-140.16 12.8-48.64 44.8-88.96 88.96-113.92 28.8-16 61.44-24.96 94.72-24.96 67.84 0 130.56 35.2 164.48 92.8 24.96 42.88 32 92.16 19.2 140.16-12.8 48.64-44.8 88.96-88.96 113.92C256 956.8 222.72 965.12 190.08 965.12zM189.44 632.32c-26.24 0-52.48 7.04-75.52 19.84-35.2 19.84-60.16 51.84-70.4 90.24-10.24 37.76-4.48 76.8 15.36 110.72 26.88 45.44 77.44 73.6 131.2 73.6 26.24 0 52.48-7.04 75.52-19.84 35.2-19.84 60.16-51.84 70.4-90.24 10.24-37.76 4.48-76.8-15.36-110.08C294.4 661.12 243.84 632.32 189.44 632.32z" p-id="12926"></path><path d="M833.92 965.12c-33.28 0-65.92-8.32-94.72-24.96-44.16-24.96-76.16-65.28-88.96-113.92-12.8-47.36-5.76-97.28 19.2-140.16 33.92-56.96 96.64-92.8 164.48-92.8 33.28 0 65.92 8.32 94.72 24.96 44.16 24.96 76.16 65.28 88.96 113.92 12.8 47.36 5.76 97.28-19.2 140.16C964.48 929.92 901.76 965.12 833.92 965.12zM834.56 632.32c-54.4 0-104.32 28.16-131.2 73.6-19.84 33.92-25.6 72.96-15.36 110.08 10.24 38.4 35.2 70.4 70.4 90.24 23.04 12.8 49.28 19.84 75.52 19.84 54.4 0 104.32-28.16 131.2-73.6 19.84-33.92 25.6-72.96 15.36-110.08-10.24-38.4-35.2-70.4-70.4-90.24C887.04 639.36 860.8 632.32 834.56 632.32z" p-id="12927"></path><path d="M882.56 584.32c-9.6 0-17.92-7.68-19.2-17.28-8.96-99.84-61.44-191.36-145.28-250.88-8.96-6.4-10.88-17.92-4.48-26.88 6.4-8.96 17.92-10.88 26.88-4.48 92.8 65.92 151.68 167.04 161.28 278.4 0.64 10.88-7.04 19.84-17.28 21.12C883.2 584.32 883.2 584.32 882.56 584.32z" p-id="12928"></path><path d="M512 981.76c-55.68 0-109.44-11.52-160.64-33.92-9.6-4.48-14.08-15.36-9.6-25.6 4.48-9.6 15.36-14.08 25.6-9.6 46.08 20.48 94.72 30.72 144.64 30.72 51.2 0 101.76-10.88 149.12-32.64 9.6-4.48 21.12 0 25.6 9.6 4.48 9.6 0 21.12-9.6 25.6C624.64 969.6 568.96 981.76 512 981.76z" p-id="12929"></path><path d="M142.08 579.2c-0.64 0-1.28 0-1.92 0-10.24-1.28-17.92-10.24-17.28-21.12 10.88-109.44 69.76-209.28 160.64-273.92 8.96-6.4 20.48-3.84 26.88 4.48 6.4 8.96 3.84 20.48-4.48 26.88C224 374.4 170.88 464 160.64 561.92 160 572.16 151.68 579.2 142.08 579.2z" p-id="12930"></path><path d="M936.96 798.72l-205.44 0c-10.88 0-19.2-8.32-19.2-19.2s8.32-19.2 19.2-19.2l205.44 0c10.88 0 19.2 8.32 19.2 19.2S947.84 798.72 936.96 798.72z" p-id="12931"></path><path d="M833.92 899.84c-10.88 0-19.2-8.32-19.2-19.2L814.72 678.4c0-10.88 8.32-19.2 19.2-19.2s19.2 8.32 19.2 19.2l0 202.24C853.12 891.52 844.8 899.84 833.92 899.84z" p-id="12932"></path></svg>