<?xml version="1.0" standalone="no"?><!DOCTYPE svg PUBLIC "-//W3C//DTD SVG 1.1//EN" "http://www.w3.org/Graphics/SVG/1.1/DTD/svg11.dtd"><svg t="1521523931483" class="icon" style="" viewBox="0 0 1024 1024" version="1.1" xmlns="http://www.w3.org/2000/svg" p-id="25847" xmlns:xlink="http://www.w3.org/1999/xlink" width="128" height="128"><defs><style type="text/css"></style></defs><path d="M174.399 396.048l93.216 48.133c2.606-6.215 5.924-12.139 9.824-17.685l-94.462-48.846c-1.56 6.616-4.476 12.963-8.576 18.398v0zM821.515 100.253c9.244 25.147-3.608 52.989-28.733 62.233-25.124 9.267-53.079-4.21-62.032-29.045-8.576-24.835 4.611-52.588 29.045-62.054 24.924-8.909 53.101 3.742 61.72 28.866v0zM174.287 346.377c9.244 25.013-3.72 52.989-28.733 62.233-25.147 9.133-53.212-4.231-62.143-29.179-8.553-24.702 4.633-52.454 29.155-62.032 24.947-8.931 52.967 3.742 61.72 28.977v0zM464.045 481.578c-2.606-53.679-48.846-95.91-103.55-93.394-53.88 2.228-96.11 48.379-93.684 102.637 2.606 54.415 48.846 96.735 103.15 93.996 54.258-2.294 96.289-48.624 94.084-103.238v0zM314.833 926.071c33.879 36.974 92.302 39.803 129.187 5.524 37.507-33.967 39.803-92.191 5.836-129.81-34.279-36.885-91.79-39.202-128.989-5.011-37.175 34.078-39.803 92.191-6.036 129.299v0zM940.367 514.565c8.931 24.947-4.032 52.789-29.179 62.345-24.924 8.909-53.189-4.21-61.921-29.491-9.244-25.013 3.832-52.477 28.934-61.699 25.058-9.133 52.9 3.697 62.165 28.845v0zM793.383 325.661c17.908 50.249-8.019 105.532-58.224 124.065-49.937 18.087-105.934-8.264-124.020-58.224-17.708-49.358 8.642-105.354 58-123.753 50.049-18.197 105.756 7.751 124.242 57.912v0zM466.049 454.359l143.978-51.385c-2.918-6.036-5.21-12.362-6.837-19.022l-145.27 51.876c3.296 5.836 6.015 12.095 8.129 18.531v0zM771.554 434.336l78.737 65.552c3.787-5.435 8.821-10.267 14.857-13.787l-80.030-66.755c-3.987 5.435-8.531 10.469-13.566 14.99v0zM741.909 262.628l28.154-91.79c-6.837-0.602-13.454-2.718-19.288-6.036l-28.2 92.012c6.66 1.18 13.097 3.208 19.334 5.813v0zM360.897 593.102l10.045 170.104c6.638-0.915 13.475-1.136 20.18-0.512l-10.001-170.706c-6.66 0.98-13.409 1.403-20.225 1.113v0z" p-id="25848"></path></svg>