<?xml version="1.0" standalone="no"?><!DOCTYPE svg PUBLIC "-//W3C//DTD SVG 1.1//EN" "http://www.w3.org/Graphics/SVG/1.1/DTD/svg11.dtd"><svg t="1521523589912" class="icon" style="" viewBox="0 0 1071 1024" version="1.1" xmlns="http://www.w3.org/2000/svg" p-id="13053" xmlns:xlink="http://www.w3.org/1999/xlink" width="133.875" height="128"><defs><style type="text/css"></style></defs><path d="M884.363636 465.454545 837.818182 465.454545C812.101818 465.454545 791.272727 444.625455 791.272727 418.909091 791.272727 393.192727 812.101818 372.363636 837.818182 372.363636L884.363636 372.363636C935.773091 372.363636 977.454545 330.682182 977.454545 279.272727 977.454545 227.863273 935.773091 186.181818 884.363636 186.181818L837.818182 186.181818C812.101818 186.181818 791.272727 165.329455 791.272727 139.636364 791.272727 113.92 812.101818 93.090909 837.818182 93.090909L884.363636 93.090909C987.182545 93.090909 1070.545455 176.453818 1070.545455 279.272727 1070.545455 382.091636 987.182545 465.454545 884.363636 465.454545ZM721.454545 1024 349.090909 1024C323.374545 1024 302.545455 1003.147636 302.545455 977.454545L302.545455 791.272727C302.545455 765.556364 323.374545 744.727273 349.090909 744.727273L721.454545 744.727273C747.170909 744.727273 768 765.556364 768 791.272727L768 977.454545C768 1003.147636 747.170909 1024 721.454545 1024ZM628.363636 837.818182 442.181818 837.818182C416.465455 837.818182 395.636364 858.647273 395.636364 884.363636 395.636364 910.08 416.465455 930.909091 442.181818 930.909091L628.363636 930.909091C654.08 930.909091 674.909091 910.08 674.909091 884.363636 674.909091 858.647273 654.08 837.818182 628.363636 837.818182ZM721.454545 651.636364 349.090909 651.636364C323.374545 651.636364 302.545455 630.784 302.545455 605.090909L302.545455 418.909091C302.545455 393.192727 323.374545 372.363636 349.090909 372.363636L721.454545 372.363636C747.170909 372.363636 768 393.192727 768 418.909091L768 605.090909C768 630.784 747.170909 651.636364 721.454545 651.636364ZM628.363636 465.454545 442.181818 465.454545C416.465455 465.454545 395.636364 486.283636 395.636364 512 395.636364 537.716364 416.465455 558.545455 442.181818 558.545455L628.363636 558.545455C654.08 558.545455 674.909091 537.716364 674.909091 512 674.909091 486.283636 654.08 465.454545 628.363636 465.454545ZM721.454545 279.272727 349.090909 279.272727C323.374545 279.272727 302.545455 258.420364 302.545455 232.727273L302.545455 46.545455C302.545455 20.829091 323.374545 0 349.090909 0L721.454545 0C747.170909 0 768 20.829091 768 46.545455L768 232.727273C768 258.420364 747.170909 279.272727 721.454545 279.272727ZM628.363636 93.090909 442.181818 93.090909C416.465455 93.090909 395.636364 113.92 395.636364 139.636364 395.636364 165.329455 416.465455 186.181818 442.181818 186.181818L628.363636 186.181818C654.08 186.181818 674.909091 165.329455 674.909091 139.636364 674.909091 113.92 654.08 93.090909 628.363636 93.090909ZM186.181818 791.272727 232.727273 791.272727C258.443636 791.272727 279.272727 812.101818 279.272727 837.818182 279.272727 863.511273 258.443636 884.363636 232.727273 884.363636L186.181818 884.363636C83.362909 884.363636 0 801.000727 0 698.181818 0 595.362909 83.362909 512 186.181818 512L232.727273 512C258.443636 512 279.272727 532.829091 279.272727 558.545455 279.272727 584.261818 258.443636 605.090909 232.727273 605.090909L186.181818 605.090909C134.772364 605.090909 93.090909 646.772364 93.090909 698.181818 93.090909 749.591273 134.772364 791.272727 186.181818 791.272727Z" p-id="13054"></path></svg>